<svg width="116" height="116" fill="none" xmlns="http://www.w3.org/2000/svg"><rect x=".5" y=".5" width="15" height="15" rx="3.5" fill="#18181B" stroke="#27272A"/><rect x="20.5" y=".5" width="15" height="15" rx="3.5" fill="#4C1D95" stroke="#6D28D9"/><rect x="40.5" y=".5" width="15" height="15" rx="3.5" fill="#18181B" stroke="#18181B"/><rect x="60.5" y=".5" width="15" height="15" rx="3.5" fill="#18181B" stroke="#18181B"/><rect x="80.5" y=".5" width="15" height="15" rx="3.5" fill="#7C3AED" stroke="#A78BFA"/><rect x="100.5" y=".5" width="15" height="15" rx="3.5" fill="#18181B" stroke="#27272A"/><rect x=".5" y="20.5" width="15" height="15" rx="3.5" fill="#18181B" stroke="#27272A"/><rect x="20.5" y="20.5" width="15" height="15" rx="3.5" fill="#4C1D95" stroke="#6D28D9"/><rect x="40.5" y="20.5" width="15" height="15" rx="3.5" fill="#18181B" stroke="#18181B"/><rect x="60.5" y="20.5" width="15" height="15" rx="3.5" fill="#18181B" stroke="#18181B"/><rect x="80.5" y="20.5" width="15" height="15" rx="3.5" fill="#7C3AED" stroke="#A78BFA"/><rect x="100.5" y="20.5" width="15" height="15" rx="3.5" fill="#18181B" stroke="#27272A"/><rect x=".5" y="40.5" width="15" height="15" rx="3.5" fill="#18181B" stroke="#27272A"/><rect x="20.5" y="40.5" width="15" height="15" rx="3.5" fill="#4C1D95" stroke="#6D28D9"/><rect x="40.5" y="40.5" width="15" height="15" rx="3.5" fill="#5B21B6" stroke="#7C3AED"/><rect x="60.5" y="40.5" width="15" height="15" rx="3.5" fill="#6D28D9" stroke="#8B5CF6"/><rect x="80.5" y="40.5" width="15" height="15" rx="3.5" fill="#7C3AED" stroke="#A78BFA"/><rect x="100.5" y="40.5" width="15" height="15" rx="3.5" fill="#18181B" stroke="#27272A"/><rect x=".5" y="60.5" width="15" height="15" rx="3.5" fill="#18181B" stroke="#27272A"/><rect x="20.5" y="60.5" width="15" height="15" rx="3.5" fill="#4C1D95" stroke="#6D28D9"/><rect x="40.5" y="60.5" width="15" height="15" rx="3.5" fill="#5B21B6" stroke="#7C3AED"/><rect x="60.5" y="60.5" width="15" height="15" rx="3.5" fill="#6D28D9" stroke="#8B5CF6"/><rect x="80.5" y="60.5" width="15" height="15" rx="3.5" fill="#7C3AED" stroke="#A78BFA"/><rect x="100.5" y="60.5" width="15" height="15" rx="3.5" fill="#18181B" stroke="#27272A"/><rect x=".5" y="80.5" width="15" height="15" rx="3.5" fill="#18181B" stroke="#27272A"/><rect x="20.5" y="80.5" width="15" height="15" rx="3.5" fill="#4C1D95" stroke="#6D28D9"/><rect x="40.5" y="80.5" width="15" height="15" rx="3.5" fill="#18181B" stroke="#18181B"/><rect x="60.5" y="80.5" width="15" height="15" rx="3.5" fill="#18181B" stroke="#18181B"/><rect x="80.5" y="80.5" width="15" height="15" rx="3.5" fill="#7C3AED" stroke="#A78BFA"/><rect x="100.5" y="80.5" width="15" height="15" rx="3.5" fill="#18181B" stroke="#27272A"/><rect x=".5" y="100.5" width="15" height="15" rx="3.5" fill="#18181B" stroke="#27272A"/><rect x="20.5" y="100.5" width="15" height="15" rx="3.5" fill="#4C1D95" stroke="#6D28D9"/><rect x="40.5" y="100.5" width="15" height="15" rx="3.5" fill="#18181B" stroke="#18181B"/><rect x="60.5" y="100.5" width="15" height="15" rx="3.5" fill="#18181B" stroke="#18181B"/><rect x="80.5" y="100.5" width="15" height="15" rx="3.5" fill="#7C3AED" stroke="#A78BFA"/><rect x="100.5" y="100.5" width="15" height="15" rx="3.5" fill="#18181B" stroke="#27272A"/></svg>