<svg width="149" height="72" fill="none" xmlns="http://www.w3.org/2000/svg"><path d="M11.335 56.291v14.932H3v-34.91h8.063v13.535h.29c.59-1.614 1.556-2.875 2.897-3.784 1.352-.91 3.006-1.364 4.96-1.364 1.841 0 3.443.41 4.807 1.228 1.364.806 2.42 1.948 3.17 3.426.762 1.477 1.137 3.204 1.125 5.181v16.688h-8.335V56.172c.012-1.455-.352-2.591-1.09-3.41-.74-.817-1.779-1.227-3.12-1.227-.875 0-1.648.194-2.318.58a3.95 3.95 0 00-1.551 1.62c-.364.704-.551 1.556-.563 2.556zM40.896 71.666c-1.67 0-3.153-.278-4.449-.835-1.284-.568-2.3-1.42-3.05-2.557-.74-1.148-1.109-2.585-1.109-4.312 0-1.455.256-2.682.767-3.682a6.555 6.555 0 012.114-2.438c.898-.625 1.932-1.096 3.102-1.414 1.17-.33 2.42-.552 3.75-.665 1.489-.137 2.688-.279 3.597-.426.909-.16 1.568-.381 1.977-.665.42-.296.63-.71.63-1.244v-.086c0-.875-.3-1.55-.903-2.028-.602-.477-1.414-.716-2.437-.716-1.102 0-1.989.239-2.66.716-.67.477-1.096 1.136-1.278 1.977l-7.687-.272a9.09 9.09 0 011.756-4.262c.954-1.261 2.261-2.25 3.92-2.966 1.67-.727 3.676-1.09 6.017-1.09 1.67 0 3.21.198 4.62.596 1.408.386 2.636.954 3.681 1.704 1.046.74 1.852 1.648 2.42 2.728.58 1.08.87 2.312.87 3.699v17.795h-7.84v-3.648h-.205a7.428 7.428 0 01-1.79 2.25c-.716.614-1.563 1.074-2.54 1.381-.966.307-2.057.46-3.273.46zm2.574-5.454c.898 0 1.705-.182 2.42-.546a4.474 4.474 0 001.74-1.5c.431-.647.647-1.397.647-2.25v-2.488a4.956 4.956 0 01-.87.34c-.329.103-.692.2-1.09.29-.398.091-.807.17-1.227.239-.421.068-.824.13-1.21.187-.785.125-1.455.319-2.012.58-.546.261-.966.602-1.262 1.023-.284.409-.426.897-.426 1.466 0 .863.307 1.522.92 1.977.626.454 1.416.682 2.37.682zM61.64 71.223v-34.91h8.336v13.211h.17a9.15 9.15 0 011.45-2.301c.635-.739 1.442-1.34 2.42-1.807.988-.477 2.17-.716 3.545-.716 1.818 0 3.517.478 5.097 1.432 1.59.955 2.875 2.426 3.852 4.415.977 1.989 1.466 4.523 1.466 7.602 0 2.966-.472 5.449-1.415 7.449-.932 2-2.193 3.5-3.784 4.5-1.58 1-3.335 1.5-5.267 1.5-1.318 0-2.46-.216-3.426-.648-.966-.431-1.779-1-2.438-1.704a8.187 8.187 0 01-1.5-2.267h-.255v4.244h-8.25zm8.165-13.09c0 1.408.188 2.636.563 3.68.386 1.046.937 1.859 1.653 2.438.728.569 1.597.853 2.608.853 1.023 0 1.892-.284 2.608-.853.716-.58 1.256-1.392 1.62-2.437.374-1.045.562-2.273.562-3.682 0-1.409-.188-2.63-.563-3.665-.363-1.034-.903-1.835-1.619-2.403-.704-.568-1.574-.852-2.608-.852-1.023 0-1.892.278-2.608.835-.716.557-1.267 1.352-1.653 2.386-.375 1.034-.563 2.267-.563 3.7zM92.344 71.223V45.041h8.335v26.182h-8.335zM96.52 41.99c-1.17 0-2.176-.386-3.017-1.159-.841-.784-1.261-1.727-1.261-2.83 0-1.09.42-2.022 1.26-2.795.842-.784 1.847-1.176 3.018-1.176 1.182 0 2.187.392 3.017 1.176.841.773 1.261 1.704 1.261 2.795 0 1.103-.42 2.046-1.261 2.83-.83.773-1.835 1.16-3.017 1.16zM120.763 45.041v6.137h-16.517V45.04h16.517zm-13.057-6.272h8.335V62.99c0 .511.08.926.239 1.244.17.307.415.529.733.665.318.125.699.188 1.142.188.318 0 .653-.029 1.006-.086.363-.068.636-.125.818-.17l1.261 6.017c-.398.114-.96.256-1.687.426-.716.17-1.574.279-2.574.324-1.955.09-3.631-.136-5.029-.682-1.386-.557-2.449-1.42-3.187-2.59-.727-1.171-1.08-2.643-1.057-4.415V38.769zM147.545 53.035l-7.653.205a2.853 2.853 0 00-.648-1.449 3.482 3.482 0 00-1.38-1.005c-.557-.25-1.205-.376-1.944-.376-.965 0-1.789.194-2.471.58-.671.386-1 .91-.989 1.568-.011.512.193.955.614 1.33.432.375 1.199.676 2.301.903l5.045.955c2.614.5 4.557 1.33 5.83 2.488 1.284 1.16 1.932 2.694 1.943 4.603-.011 1.795-.545 3.358-1.602 4.687-1.046 1.33-2.477 2.364-4.296 3.102-1.818.728-3.897 1.091-6.238 1.091-3.739 0-6.688-.767-8.847-2.3-2.148-1.546-3.375-3.614-3.682-6.205l8.233-.205c.182.955.654 1.682 1.415 2.182.762.5 1.733.75 2.915.75 1.068 0 1.937-.199 2.608-.597.67-.397 1.011-.926 1.023-1.585-.012-.59-.273-1.062-.784-1.415-.512-.363-1.313-.647-2.404-.852l-4.568-.87c-2.625-.476-4.58-1.357-5.864-2.641-1.284-1.296-1.92-2.944-1.909-4.944-.011-1.75.455-3.244 1.398-4.482.943-1.25 2.284-2.205 4.023-2.864 1.738-.66 3.789-.989 6.153-.989 3.545 0 6.341.745 8.386 2.233 2.046 1.477 3.177 3.512 3.392 6.102z" fill="#fff"/><rect x=".5" y=".783" width="15" height="15" rx="3.5" fill="#18181B" stroke="#27272A"/><rect x="20.5" y=".783" width="15" height="15" rx="3.5" fill="#4C1D95" stroke="#6D28D9"/><rect x="40.5" y=".783" width="15" height="15" rx="3.5" fill="#5B21B6" stroke="#7C3AED"/><rect x="60.5" y=".783" width="15" height="15" rx="3.5" fill="#6D28D9" stroke="#8B5CF6"/><rect x="80.5" y=".783" width="15" height="15" rx="3.5" fill="#7C3AED" stroke="#A78BFA"/><rect x="100.5" y=".783" width="15" height="15" rx="3.5" fill="#8B5CF6" stroke="#C4B5FD"/></svg>